<svg id="圖層_1" data-name="圖層 1" xmlns="http://www.w3.org/2000/svg" viewBox="0 0 496.33 146.61"><title>曬曬網文字</title><path d="M170.18,80.69l-15.79,5.17-.58-1c2-1.32,4-2.78,6.09-3.9a32.08,32.08,0,0,1,5.4-2c5.67-1.8,6.26-3.06,3.8-9.44-4.89,1.59-9.87,3-14.72,4.84-4.7,1.75-9.27,3.85-13.91,5.79l-.6-1c1.92-1.25,3.69-2.88,5.78-3.66,6.81-2.55,13.68-5,20.66-7.06,2.94-.87,4-2,2.81-5.4l-11.27,3.72-.52-1.15c2.53-1.39,4.95-3.1,7.63-4.1,4-1.48,4.81-4,3.09-8.37l-7.85,4.14c-3.41-2.93-5.9-12.6-3.36-16l1.45,4.13c11.25-7.08,11-4.32,9.73-13.25L157.2,34.77l-.65-1.85c2-1,3.82-2.35,5.89-2.92,5.22-1.45,6.88-4.75,6.17-9.86a33.33,33.33,0,0,1,0-8.17c3.42,3.84,1.53,8.87,2.67,13.54,3.32-1.17,6.35-2.46,9.51-3.23,1.25-.3,2.78.57,4.19.91-1.1,1-2,2.34-3.32,3-1.8.93-3.9,1.27-5.79,2-5.57,2.31-5.86,3-4.36,9.09,4.78-.55,9.51-1.13,14.25-1.62,2.57-.26,4.67.5,5.53,3.22.92,3-1.11,4.42-3.2,5.5-3.9,2-7.79,4.29-12,5.5s-5.32,3.26-3.72,7.62c1.79-.67,3.53-1.31,5.26-2s3.56-1.48,5.38-2.1c8.24-2.79,9.82-2,12.32,6.2,14-3.18,27.53-8.56,42-9l.46,1.49a19.57,19.57,0,0,1-3.23,1.35c-12.74,2.87-25.49,5.63-38.21,8.54a9.34,9.34,0,0,0-3.46,2c-5.9,4.84-11.83,9.65-17.54,14.72-1.1,1-1.58,3-1.76,4.59-.74,6.52-.53,13.24-2,19.58-1.94,8.26-7.68,9.3-13.53,3.12-3.69-3.91-4.64-6.13-4-10.44a29.63,29.63,0,0,1,2.65,2.47c1.83,2.22,3.36,4.74,5.41,6.73,2.81,2.73,4.69,2.16,6.08-1.51C171,96.21,170.54,88.8,170.18,80.69Zm3.26-14.35c5.24-1.59,10.39-3.34,15.65-4.66,2.67-.67,3.25-2.08,2.84-4.43-.53-3.07-2.92-2.19-4.51-1.72-3.92,1.17-7.68,2.85-11.57,4.15C172.44,60.82,171.82,62.88,173.44,66.34Zm16.36-1.16L189.37,64c-3.64,1-7.3,2-10.93,3-5.72,1.61-6.25,2.73-4.22,8.68C181.79,75.57,185.35,69.73,189.8,65.18ZM172,48.64c5.17-4.16,12.63-2.52,17-9.16-1.75-.3-3-.8-4.2-.65a67.29,67.29,0,0,0-9.26,1.67C170.86,41.75,170.55,42.54,172,48.64ZM161.53,53.4c7.8-3.9,7.8-3.9,6.45-9.22C160.54,46.15,158.89,48.41,161.53,53.4Z" transform="translate(-13.1 -11.97)"/><path d="M465.22,43.25l1.36,2.86c6.71-3.29,13.3-6.55,19.94-9.72a10,10,0,0,1,3.21-.64c15.11-1.47,19.93,2.46,19.69,17.66-.19,11.93-1.38,23.87-2.63,35.75-.24,2.24-2.5,5.37-4.49,6-1.56.49-4.39-2-6.17-3.66a12.52,12.52,0,0,1-3.33-6.35c1.55,1.67,3.05,3.39,4.65,5,3.35,3.35,5.15,3.06,5.88-1.69,1.36-8.82,2.31-17.73,2.89-26.64a88.07,88.07,0,0,0-.62-16.06c-.54-4.53-3.67-6.72-8.24-7.13-11.28-1-20.39,3.74-28.49,10.83-1.18,1-1.54,3.7-1.32,5.49,1,8.74,2.55,17.42,3.54,26.16.25,2.18-.91,6.48-1.23,6.46-3.94-.22-2.53-3.87-2.95-6-1.68-8.48-3.19-17-4.09-25.61-.44-4.13.63-8.41,1-12.63Z" transform="translate(-13.1 -11.97)"/><path d="M364.33,83.35c.85,4.88,1.7,9.75,2.77,16l9.71-12.49v2.26l1.05.62,3.48-4.42a10.16,10.16,0,0,0,3.35.17c2.62-.76,5.11-2,7.74-2.75,3.49-1,5.63.8,4.08,3.9A39.73,39.73,0,0,1,388.3,98c-4.41,4.06-9.74,7.11-14.7,10.56-.38.27-.94.27-2.12-.31l5.31-6.73c-1-2-1.88-3.93-2.8-5.84a9.53,9.53,0,0,0-7.81,9.19c-.25,5.77-.41,11.55-1,17.29-.14,1.38-1.71,2.62-2.62,3.92-.83-1.37-2.42-2.78-2.36-4.12.38-8.24,1.17-16.45,1.75-24.68.32-4.6.5-9.2.74-13.8Zm16,15.68c2.36-1.28,4.5-2.85,6.89-3.64,4.31-1.42,6.68-4.49,6.38-9.12C383.12,88.22,380.29,90.88,380.31,99Z" transform="translate(-13.1 -11.97)"/><path d="M255.64,108.06l3,15.9,9.63-12.3v2.49l1,.6,3.45-4.72c1.35.07,2.6.44,3.66.14,2.63-.75,5.12-2,7.76-2.71,3.28-.88,5.34,1,3.84,3.86a41.46,41.46,0,0,1-8.17,11.49c-4.4,4.07-9.75,7.11-14.72,10.56-.39.28-1,.31-2.15-.23l5.35-6.84-3.25-6.17c-3.77,2.21-7.37,4.26-7.43,9.62-.07,5.77-.48,11.55-1.09,17.29-.15,1.4-1.66,2.64-2.55,4-.8-1.38-2.35-2.8-2.28-4.14.4-8.93,1.17-17.84,1.79-26.75.28-3.94.49-7.87.74-11.81Zm29.61,3c-10.64,2-13.37,4.62-13.6,12.92,2.27-1.28,4.28-2.8,6.55-3.63C283,118.59,284.86,116.44,285.25,111.06Z" transform="translate(-13.1 -11.97)"/><path d="M325.18,88.22c4.77-2.67,7.75-7.58,14-6.8-3.37,6.79-14.08,6.44-13.71,15.73-5.27-2.4-10-26.15-6-33.19,1.27,3.95,2.31,7.2,3.47,10.82,2.68-1.56,5.17-3.22,7.83-4.52,8-3.9,12.7-1.29,12.91,7.54.08,3.88-1.13,7.79-1.71,11.7-1.38,9.24-8.65,12.84-15.89,16.29-1.41.68-4.89.34-5,0-.54-2.57,1.23-2.87,3.54-3.46C335.3,99.57,342.81,87,340.73,76c-.83-4.41-2.44-5.65-6.54-4.06a43.7,43.7,0,0,0-8.9,5.08c-.85.6-1.32,2.35-1.26,3.53A70.18,70.18,0,0,0,325.18,88.22Z" transform="translate(-13.1 -11.97)"/><path d="M216.65,113.12c4.71-2.78,7.73-7.63,14-6.88-3.35,6.71-13.93,6.5-13.73,15.62-5.1-1.72-9.68-22.91-5.92-32.29,1.11,3.25,2.23,6.49,3.46,10.05,2.72-1.59,5.3-3.35,8.09-4.66,7.5-3.54,11.3-1.65,12.31,6.46a39.36,39.36,0,0,1-.64,10.58c-1.46,9.63-8,15-16.37,18.55-1.68.71-3.68.68-5.53,1l-.7-1.49c1.08-.94,2-2.29,3.28-2.75,9.12-3.34,15.65-9,17.27-19,.46-2.77-.1-5.73-.42-8.58s-2.2-4.35-4.93-3.16a83.21,83.21,0,0,0-10.43,5.63c-.72.45-1,2.13-1,3.19C215.63,107.83,216.17,110.25,216.65,113.12Z" transform="translate(-13.1 -11.97)"/><path d="M103.24,64.29c.93-1.05,1.65-2.56,2.82-3.07a129.92,129.92,0,0,1,15.66-6.13c4.57-1.33,6.95.73,7.67,5.55a18.15,18.15,0,0,1-3,13c-1.27,1.93-2.51,3.87-3.87,6,3.66,2.59,7,4.93,10.34,7.34a9.3,9.3,0,0,1,2.7,2.51c.44.78.14,2,.17,3-1,0-2.22.45-2.92,0-3.48-2.2-6.82-4.65-10.23-7-1-.68-2.06-1.29-3.16-2C112.82,89.94,106.18,96,96.22,94.89c7.2-3.59,14.93-6.21,19.86-13.14-1.86-3.9-8.23-3.81-8.77-10.42l12.12,6.53c3.62-4.71,7.58-9.09,7.1-15.63-.23-3.15-1.36-5.14-5-3.75-4.47,1.73-8.9,3.57-13.37,5.32-1.42.55-2.89,1-4.33,1.46Z" transform="translate(-13.1 -11.97)"/><path d="M13.37,32c1.49,0,3.18-.46,4.43.08,12.58,5.43,26,5.42,39.27,6.07,11.67.57,23.38.5,35.07.72a14.38,14.38,0,0,1,3.67.31A2.34,2.34,0,0,1,97.08,41c0,.61-.73,1.34-1.31,1.79a2.76,2.76,0,0,1-1.6.24c-12.92-.23-25.87-.09-38.77-.85a276.43,276.43,0,0,1-29.77-3.63c-4.31-.73-8.36-3-12.53-4.65Z" transform="translate(-13.1 -11.97)"/><path d="M480.73,72.64l-6,1.78c-.13-.22-.25-.45-.38-.68,2.06-1.79,4.88-3.23,6-5.49,1-2.11.22-5.11.22-7.86l-7.4,1.85-.8-1.18c2.09-2.77,4.18-5.54,6-8l-2.48-5.87,1.41-.72,3.27,3.89,4.85-7.81c1.4,4.63-2,7-3.32,10.27l6.21-1.36,1,1c-3.12,3.93-10.21,6.11-6.19,13.1l4.67-3.38,1,.48C487.44,67.5,482.15,71.47,485,78l12.86-8.6.81,1.24c-2.88,4.32-6.46,8-11.28,10.21-4.13,1.88-6.51.09-6.61-4.58C480.71,75.17,480.73,74.08,480.73,72.64Z" transform="translate(-13.1 -11.97)"/><path d="M407.35,126.54c-9.07-.14-13.91-9.2-9.06-17.7,1.7-3,4.74-5.25,7.43-7.54.81-.69,2.5-.34,3.79-.47,0,1.39.55,3.17-.11,4.12a50.62,50.62,0,0,1-7.1,8.47c-1.82,1.66-1.68,2.86-.55,4.52a6.75,6.75,0,0,0,9.77,1.66c2.17-1.67,3.93-3.87,6.08-5.57.9-.71,2.33-.73,3.53-1.07-.11,1.12.18,2.55-.4,3.31C417.22,120.89,414.47,126.62,407.35,126.54Zm-5.74-14.47c2.56-3.18,5.12-6.36,8.15-10.1C403.7,102.23,400.23,106.34,401.61,112.07Z" transform="translate(-13.1 -11.97)"/><path d="M299.06,152.15c-9-1-13.83-9-9.75-17.41,1.7-3.47,5.32-6.07,8.29-8.82.64-.6,2.24-.18,3.39-.23.05,1.27.62,2.89,0,3.73a43.43,43.43,0,0,1-7,8.54c-2.39,2.06-2,3.5-.42,5.41a6.65,6.65,0,0,0,9.23,1.15c2.15-1.68,3.91-3.87,6-5.59.92-.73,2.34-.84,3.53-1.23-.09,1.2.24,2.69-.35,3.56a33.76,33.76,0,0,1-5.78,7C304.25,149.94,301.51,150.87,299.06,152.15Zm-6-15.29,8.11-10C295.13,127.08,291.65,131.22,293,136.86Z" transform="translate(-13.1 -11.97)"/><path d="M435.23,55.9l12.52-5.67c-2.5,8.12-10.48,12.5-10.36,21.94,2.57-1,4.59-1.51,6.25-2.56,1.34-.85,2.15-2.49,3.37-3.58,1.44-1.27,3.08-2.33,4.63-3.48l3.71,5.77-1.18.73-3-5.17c-1.23,1.62-2.1,2.94-3.15,4.09-1.74,1.91-3.31,4.37-5.51,5.36a9.38,9.38,0,0,1-6.88-.28c-.87-.39-1.16-3.81-.57-5.44,1.26-3.54,3.25-6.81,5.13-10.56a12.7,12.7,0,0,1-2.74.76c-1.79.09-3.58,0-5.37-.05.13-1.68-.29-3.7.49-5,2.59-4.33,5.55-8.45,8.52-12.55.67-.93,1.92-1.42,2.9-2.12l.72.78-10.7,16Z" transform="translate(-13.1 -11.97)"/><path d="M266.09,139c.57,1,.94,1.69,1.55,2.77,1.66-1.21,3.31-2.33,4.86-3.58a16.4,16.4,0,0,1,5.07-3.36c-.23.86-.21,2-.75,2.53a72.71,72.71,0,0,1-6.81,6.56c-2.6,2.12-3.3,6.06-.75,8.33a4.26,4.26,0,0,0,4.11,0c2.21-1.79,3.95-4.16,5.89-6.3.85-.94,1.71-1.87,2.87-3.13,1.1,5.55-6,15.68-10.61,15.77-3.65.08-6.24-2-7.44-5.48-.86-2.46-.48-5.52-3.89-6.5-.27-.08-.16-1.46-.23-2.27C261.09,144.48,263.59,142.23,266.09,139Z" transform="translate(-13.1 -11.97)"/><path d="M374.68,114.37l1.7,2.7,8.93-7.42.8.35c-.24.86-.22,2-.76,2.54a76.41,76.41,0,0,1-6.82,6.53c-2.71,2.21-3.31,6-.63,8.34a4.27,4.27,0,0,0,4.13-.07,39.1,39.1,0,0,0,5.81-6.36,15.62,15.62,0,0,0,1.57-3.74l1.81,1.5c.11.59.53,1.37.29,1.75-2.2,3.62-4.08,7.56-6.89,10.65-4.13,4.53-10.77,2.37-12.2-3.65-.52-2.2-.06-4.82-3.29-5.43-.27,0-.27-1.58-.39-2.42C373.27,120.94,371.87,115.8,374.68,114.37Z" transform="translate(-13.1 -11.97)"/><path d="M106.06,52.65,109.93,30l2.33,3.5c5-2.2,9.82-4.48,14.75-6.37,2.63-1,4.68.51,5.45,3,1.69,5.55,1.93,11.18-1,16.4-.85,1.5-3,3.51-4.14,3.28-1.6-.31-2.91-2.45-4.14-4-.36-.44,0-1.44,0-2.18a7.33,7.33,0,0,1,2.28.89,10.73,10.73,0,0,1,1.6,2.32c4.23-4.12,5.92-11.3,3.72-15.67-.52-1-2.87-2.24-3.66-1.87a102.23,102.23,0,0,0-14,7.69c-1.29.87-1.25,3.71-1.81,5.65C110.28,46.2,110.63,50.41,106.06,52.65Z" transform="translate(-13.1 -11.97)"/><path d="M390.35,60.29l-4.18,1.06-1.1-.81,3.48-9.29-7.46,1.84-.57-1.28c4.21-2.55,8.4-5.15,12.68-7.6a2.29,2.29,0,0,1,2.18.44,3.09,3.09,0,0,1-.08,2.56A65,65,0,0,0,390,56.86c2.47-1.43,4.87-3,7.44-4.23,2-1,4.42-2.63,6.21.21,1.67,2.65,1.75,5.6-.49,8a15,15,0,0,1-5.29,3.29c1.68-3.33,6.37-5.45,3.51-10.65-4.74.43-7.92,3.76-11.2,6.92Z" transform="translate(-13.1 -11.97)"/><path d="M282,85.11l-5.5,1.27c.7-2.53,1-4.2,1.63-5.77s1.39-2.87,2.25-4.6l-7.78,1.82-.46-1.24c4-2.47,7.95-5,12-7.34.69-.39,2,.23,3,.38a7.78,7.78,0,0,1-.46,2.62,56.94,56.94,0,0,0-5.13,9.5c2.4-1.41,4.72-3,7.21-4.17,2-1,4.77-2.89,6.11,0a10.7,10.7,0,0,1,0,7.66c-.7,1.77-3.34,2.78-5.13,4.12L288.41,88c1.33-1,3.21-1.74,3.85-3.08.84-1.76.7-4,1-6-1.62.3-3.51.16-4.8,1a63.86,63.86,0,0,0-6.61,5.4Z" transform="translate(-13.1 -11.97)"/><path d="M390.22,60.41,392.8,67l2.39,2.48c-1,1-1.94,2.25-3.16,2.89-6.48,3.36-13,6.6-19.58,9.77a13.19,13.19,0,0,1-5.75,1.19c5.74-2.87,9.16-6.73,6.33-13.92l2,.23c.57,2,1.13,3.94,1.69,5.88,10.78-3.67,14-7.27,13.6-15.21Z" transform="translate(-13.1 -11.97)"/><path d="M281.84,85.24c.69,2,1.39,4,2.34,6.69l2.54,2.15c-1.12,1.08-2.07,2.48-3.4,3.17-6.44,3.38-13,6.61-19.51,9.77a10.35,10.35,0,0,1-5.29.93c2.07-1.83,4.81-3.29,6-5.57,1.12-2.12.61-5.1.82-7.7l1.07-.32q.93,3,1.85,5.93c10.45-3.47,13.62-7,13.7-15.18Z" transform="translate(-13.1 -11.97)"/><path d="M358.91,66.67c3.46-3.18,6.07-5.81,8.93-8.14,2.66-2.19,4.19-1.56,4.71,1.83.62,4.09-.31,7.6-3.92,9.57l2.65-10.31-1.59-.91c-2.1,2.14-4.09,4.42-6.35,6.38a46.54,46.54,0,0,1-5.46,3.62c-.41-2.17-1.27-4.37-1.13-6.5.19-2.81,1.16-5.57,1.89-8.79l-4.13,2c.18-4.66,6.05-10.44,10.2-9.82C362.4,52.23,358.21,58.35,358.91,66.67Z" transform="translate(-13.1 -11.97)"/><path d="M249.9,78.61l-4.3,1.58L244.72,79c2.74-2.91,5.42-5.87,8.27-8.66.46-.45,1.68-.11,2.55-.13a10.07,10.07,0,0,1-.25,2.6c-1.45,4-3.16,7.89-4.46,11.92-.58,1.82-.42,3.88-.7,7,3.61-3.34,6.22-5.9,9-8.25.84-.71,2.41-1.39,3.23-1.06s1.27,2,1.39,3.06c.42,3.83.13,7.46-3.68,9.23.87-3.25,1.8-6.72,2.72-10.18l-1.71-1C259,85.71,257,88,254.78,90a48.46,48.46,0,0,1-5.45,3.6c-.4-2.16-1.2-4.34-1.1-6.48C248.36,84.4,249.24,81.76,249.9,78.61Z" transform="translate(-13.1 -11.97)"/><path d="M90.21,72.43c-6.32,10.46-16.66,17.38-23.93,27l-1.35-.68c.32-1.21.32-2.67,1-3.57,2.7-3.47,5.54-6.85,8.51-10.09,3.61-3.95,7.38-7.77,11.16-11.57A24.29,24.29,0,0,1,89,71.1Z" transform="translate(-13.1 -11.97)"/><path d="M90.35,56.24c-.91,1.21-1.45,2.76-2.45,3.15-9.81,3.77-19.85,6.37-30.52,4.86-.32,0-.6-.49-1.14-1Z" transform="translate(-13.1 -11.97)"/><path d="M429.11,83.67c1.29,5.16,2.52,10.07,3.89,15.52C428.29,97.49,425.89,86.7,429.11,83.67Z" transform="translate(-13.1 -11.97)"/><path d="M441,96.92c-5-2.52-3.66-8.68-7.56-11.74C438.05,84.44,442.45,91.37,441,96.92Z" transform="translate(-13.1 -11.97)"/><path d="M443.26,83l9.13,10.72L450.8,95.1c-4.26-2.47-6.55-6.71-9-10.77Z" transform="translate(-13.1 -11.97)"/></svg>